# xmcd
#
# Track frame offsets:
#	187
#	11400
#	23717
#	37412
#	48257
#	64660
#	74335
#	89227
#	107342
#	118167
#	135817
#	147750
#	160822
#	177125
#	191190
#	204045
#	216135
#	227207
#	242985
#	255950
#
# Disc length: 3556
#
# Revision: 3
# Processed by: cddbd v1.5.1PL0 Copyright (c) Steve Scherf et al.
# Submitted via: audiograbber 1.83.01
# Normalized: r2:DSETVAR1
#
DISCID=150de214
DTITLE=Various Artist - Soft'N'Sentimental
DYEAR=1993
DGENRE=Country
TTITLE0=Charlie Rich - She Called Me Baby
TTITLE1=Dickey Lee - Never Ending Song Of Love
TTITLE2=Patsy Cline - She's Got You
TTITLE3=Don Gibson - Lonesome Number One
TTITLE4=Elvis Presley - Always On My Mind
TTITLE5=Tom T. Hall - I Love
TTITLE6=Donna Fargo - You Were Always There
TTITLE7=Ronnie Milsap - What A Difference You've Made In My Life
TTITLE8=Jim Reeves - Am I That Easy To Forget
TTITLE9=Eddie Rabbit and Juice newton - Both To Each Other (Friends And Lovers)
TTITLE10=Bobbie Goldsboro - Watchin Scotty Grow
TTITLE11=Eddy Arnold - I Really Don't Want To Know
TTITLE12=Lee Greenwood - Somebody's Gonna Love You
TTITLE13=Don Williams - I'm Just A Country Boy
TTITLE14=Elvis Presley - Don't Cry Daddy
TTITLE15=Roger Miller - Little Green Apples
TTITLE16=Willie Nelson - I'm A Memory
TTITLE17=Bill Anderson - Mama Sang A Song
TTITLE18=Jimmy Elledge - Funny How Time Slips Away
TTITLE19=George Jones - Tender Years
EXTD=
EXTT0=
EXTT1=
EXTT2=
EXTT3=
EXTT4=
EXTT5=
EXTT6=
EXTT7=
EXTT8=
EXTT9=
EXTT10=
EXTT11=
EXTT12=
EXTT13=
EXTT14=
EXTT15=
EXTT16=
EXTT17=
EXTT18=
EXTT19=
PLAYORDER=
